<?xml version="1.0" encoding="UTF-8"?>
<svg version="1.1" xmlns="http://www.w3.org/2000/svg" width="500" height="500">
<path d="M0 0 C2.47906393 0.00543763 4.95795273 -0.00001732 7.43701172 -0.00634766 C9.0164392 -0.00568812 10.59586657 -0.00440955 12.17529297 -0.00244141 C12.9147818 -0.00446564 13.65427063 -0.00648987 14.41616821 -0.00857544 C19.59370748 0.0153596 19.59370748 0.0153596 21.82373047 1.13037109 C21.82373047 60.53037109 21.82373047 119.93037109 21.82373047 181.13037109 C-79.48626953 181.13037109 -180.79626953 181.13037109 -285.17626953 181.13037109 C-285.17626953 122.06037109 -285.17626953 62.99037109 -285.17626953 2.13037109 C-237.85082393 -3.12801175 -178.58243431 3.19292791 -138.17626953 30.13037109 C-129.34411068 32.27368 -123.26544152 29.52525443 -115.73876953 25.25537109 C-89.21086947 10.27718268 -58.18021713 4.26842847 -28.17626953 1.13037109 C-27.28939453 1.03320801 -26.40251953 0.93604492 -25.48876953 0.8359375 C-16.99452842 0.0061923 -8.5258572 -0.02234149 0 0 Z " fill="#32CC33" transform="translate(379.17626953125,318.86962890625)"/>
<path d="M0 0 C2.23153906 0.0031536 4.46173964 -0.0203508 6.69311523 -0.0456543 C15.67519509 -0.08554395 23.73768751 0.84199342 32.43334961 3.31567383 C33.18044189 3.50911377 33.92753418 3.70255371 34.69726562 3.90185547 C58.63983306 10.18666862 79.37010126 24.857875 94.43334961 44.31567383 C95.11526367 45.17032227 95.79717773 46.0249707 96.49975586 46.90551758 C115.2132584 71.25870582 121.77765794 102.72096094 117.92944336 132.90942383 C117.32236653 136.77137713 116.42323211 140.53319599 115.43334961 144.31567383 C115.11624023 145.58926758 114.79913086 146.86286133 114.47241211 148.17504883 C106.66340799 177.22829018 86.60193738 200.86101572 61.37084961 216.56567383 C59.7358074 217.5014527 58.09002389 218.41874826 56.43334961 219.31567383 C55.28092773 219.9421582 55.28092773 219.9421582 54.10522461 220.58129883 C27.88325527 233.60982447 -5.78257504 235.7125446 -33.56079102 226.66625977 C-47.43163845 221.91587483 -60.57066401 215.04076731 -71.56665039 205.31567383 C-72.4084082 204.59379883 -73.25016602 203.87192383 -74.11743164 203.12817383 C-96.51574673 183.55089084 -110.90945903 155.88768173 -113.40258789 126.10864258 C-115.37550491 92.52207902 -105.22472692 62.45250538 -83.12915039 37.12817383 C-67.35802533 20.10623541 -47.20252373 7.85803312 -24.56665039 2.31567383 C-23.9030249 2.13979736 -23.23939941 1.9639209 -22.55566406 1.78271484 C-15.08625455 0.01275362 -7.63009297 -0.02248799 0 0 Z " fill="#32CC33" transform="translate(244.566650390625,-0.315673828125)"/>
<path d="M0 0 C3.15767146 -0.07053931 6.25545472 0.01755683 9.41015625 0.18359375 C10.20115723 0.22468262 10.9921582 0.26577148 11.80712891 0.30810547 C46.25077151 2.26861831 84.49856139 11.91239551 112.41015625 33.18359375 C112.41015625 33.84359375 112.41015625 34.50359375 112.41015625 35.18359375 C111.61770508 35.27334473 110.82525391 35.3630957 110.00878906 35.45556641 C74.96167671 39.50256543 36.15320039 44.78956292 5.48046875 63.56640625 C0.84140816 64.94937148 -4.10815184 61.53300352 -8.29492188 59.56982422 C-39.53325813 45.01208471 -73.47564201 38.39834669 -107.58984375 35.18359375 C-107.58984375 34.52359375 -107.58984375 33.86359375 -107.58984375 33.18359375 C-105.55603534 31.73399759 -103.54972621 30.44781815 -101.40234375 29.18359375 C-100.7367041 28.79059082 -100.07106445 28.39758789 -99.38525391 27.99267578 C-68.26781206 10.00567419 -35.70904305 1.82625139 0 0 Z " fill="#32CC33" transform="translate(244.58984375,257.81640625)"/>
<path d="M0 0 C0.33 0 0.66 0 1 0 C1 43.89 1 87.78 1 133 C-13.19 133 -27.38 133 -42 133 C-38.88467094 88.25254617 -27.64357697 36.55944133 0 0 Z " fill="#32CC33" transform="translate(66,367)"/>
<path d="M0 0 C23.68151407 29.60189258 33.76436981 71.63874866 39.8125 108.1875 C39.9244873 108.85587891 40.03647461 109.52425781 40.15185547 110.21289062 C41.30022367 117.80498244 41.51672408 125.26758525 42 133 C28.14 133 14.28 133 0 133 C0 89.11 0 45.22 0 0 Z " fill="#32CC33" transform="translate(428,367)"/>
<path d="M0 0 C0.33 0 0.66 0 1 0 C1 43.89 1 87.78 1 133 C0.34 133 -0.32 133 -1 133 C-1.33 94.39 -1.66 55.78 -2 16 C-3.32 15.67 -4.64 15.34 -6 15 C-6.268125 15.969375 -6.53625 16.93875 -6.8125 17.9375 C-7.204375 18.948125 -7.59625 19.95875 -8 21 C-8.99 21.33 -9.98 21.66 -11 22 C-11 22.99 -11 23.98 -11 25 C-11.66 25 -12.32 25 -13 25 C-11.4496676 19.70864811 -9.09449988 15.08256687 -6.5 10.25 C-6.09652344 9.48300781 -5.69304688 8.71601563 -5.27734375 7.92578125 C-2.26051457 2.26051457 -2.26051457 2.26051457 0 0 Z " fill="#47B848" transform="translate(66,367)"/>
<path d="M0 0 C1.04630836 0.00212242 1.04630836 0.00212242 2.11375427 0.00428772 C4.30374769 0.00980756 6.49363216 0.0223438 8.68359375 0.03515625 C10.1842433 0.04018165 11.68489447 0.04474272 13.18554688 0.04882812 C16.83076352 0.05975049 20.47591797 0.07695769 24.12109375 0.09765625 C24.12109375 0.42765625 24.12109375 0.75765625 24.12109375 1.09765625 C23.20295898 1.1227124 22.28482422 1.14776855 21.33886719 1.17358398 C17.9245235 1.26885895 14.51034172 1.36808403 11.09619141 1.4699707 C9.61999985 1.5132166 8.1437616 1.55489881 6.66748047 1.5949707 C4.54250027 1.65292471 2.41775282 1.71654571 0.29296875 1.78125 C-0.98481445 1.81790771 -2.26259766 1.85456543 -3.57910156 1.89233398 C-7.31459037 2.11666029 -7.31459037 2.11666029 -10.87890625 3.09765625 C-11.20890625 3.75765625 -11.53890625 4.41765625 -11.87890625 5.09765625 C-13.19890625 4.76765625 -14.51890625 4.43765625 -15.87890625 4.09765625 C-15.87890625 62.17765625 -15.87890625 120.25765625 -15.87890625 180.09765625 C-16.20890625 180.09765625 -16.53890625 180.09765625 -16.87890625 180.09765625 C-16.87890625 121.02765625 -16.87890625 61.95765625 -16.87890625 1.09765625 C-11.02702664 0.4474474 -5.80465744 -0.02350064 0 0 Z " fill="#4ABA4B" transform="translate(110.87890625,319.90234375)"/>
<path d="M0 0 C-3 2 -3 2 -6 2 C-6 2.66 -6 3.32 -6 4 C-6.763125 4.226875 -7.52625 4.45375 -8.3125 4.6875 C-11.59272703 6.28947134 -12.48290098 7.72626 -14 11 C-14 11.99 -14 12.98 -14 14 C-14.66 14 -15.32 14 -16 14 C-16 14.99 -16 15.98 -16 17 C-14.35 17.33 -12.7 17.66 -11 18 C-11 18.66 -11 19.32 -11 20 C-18.59 19.34 -26.18 18.68 -34 18 C-34 17.34 -34 16.68 -34 16 C-31.86115134 14.51878585 -29.74261197 13.18346718 -27.5 11.875 C-26.83452148 11.4826416 -26.16904297 11.0902832 -25.48339844 10.68603516 C-20.47901602 7.77517996 -15.40157081 5.01607029 -10.25 2.375 C-9.57130859 2.02034668 -8.89261719 1.66569336 -8.19335938 1.30029297 C-3.35713404 -1.11904468 -3.35713404 -1.11904468 0 0 Z " fill="#37C539" transform="translate(171,275)"/>
<path d="M0 0 C1.32 1.65 2.64 3.3 4 5 C3.67 5.66 3.34 6.32 3 7 C2.67 6.67 2.34 6.34 2 6 C1.67 47.91 1.34 89.82 1 133 C0.67 133 0.34 133 0 133 C0 89.11 0 45.22 0 0 Z " fill="#48BB46" transform="translate(428,367)"/>
<path d="M0 0 C5.13458095 1.47159329 9.34685934 3.75327902 13.875 6.5 C14.56335938 6.90347656 15.25171875 7.30695313 15.9609375 7.72265625 C17.67818898 8.75505148 19.34458175 9.87111428 21 11 C21 11.66 21 12.32 21 13 C15.27959989 13.8320582 9.77759884 14.12036664 4 14 C4 10.13304322 5.41909971 7.4911548 7 4 C4.69 4 2.38 4 0 4 C0 2.68 0 1.36 0 0 Z " fill="#3BC23C" transform="translate(336,280)"/>
<path d="M0 0 C0.99 0.33 1.98 0.66 3 1 C4.2065625 0.7215625 4.2065625 0.7215625 5.4375 0.4375 C8.46304065 -0.07905572 9.39383161 0.54475098 12 2 C2.55521643 4.44605137 -6.22552486 5.43245549 -15.97119141 5.28125 C-18.02654983 5.24959105 -20.08113838 5.24020781 -22.13671875 5.234375 C-27.88173803 5.18936016 -33.34283256 5.07254048 -39 4 C-39 3.67 -39 3.34 -39 3 C-37.51113281 3.01740234 -37.51113281 3.01740234 -35.9921875 3.03515625 C-27.97702398 3.09870561 -20.08194877 2.87221781 -12.0859375 2.22265625 C-8.37267306 1.95473717 -4.72043238 1.92559135 -1 2 C-0.67 1.34 -0.34 0.68 0 0 Z " fill="#40C041" transform="translate(265,226)"/>
<path d="M0 0 C16.02409153 1.68856018 32.44325419 7.20685196 47 14 C45.02 14.99 45.02 14.99 43 16 C42.01 15.34 41.02 14.68 40 14 C32.44560291 9.95057093 24.25864695 8.04562006 16 6 C16.33 6.99 16.66 7.98 17 9 C14.525 8.01 14.525 8.01 12 7 C12 6.34 12 5.68 12 5 C11.34 5 10.68 5 10 5 C10 4.34 10 3.68 10 3 C8.906875 3.061875 7.81375 3.12375 6.6875 3.1875 C3 3 3 3 1.26953125 1.48828125 C0.64111328 0.75158203 0.64111328 0.75158203 0 0 Z " fill="#41B842" transform="translate(176,326)"/>
<path d="M0 0 C5.64255935 0.56804289 10.73670994 1.63081362 16.125 3.375 C17.14013672 3.68824219 17.14013672 3.68824219 18.17578125 4.0078125 C21.3997769 5.03051131 24.27188317 6.13754846 27.3046875 7.671875 C29.94853485 9.24204309 29.94853485 9.24204309 33 8.875 C36.61279692 9.02553321 37.77088695 10.27886225 40.34375 12.6875 C43.23475205 14.97848276 46.52040388 15.86013231 50 17 C48.50390625 18.23828125 48.50390625 18.23828125 46 19 C43.16667853 17.85252019 40.62048005 16.62385425 37.9375 15.1875 C25.80185139 9.02673575 12.95468253 5.06640758 0 1 C0 0.67 0 0.34 0 0 Z " fill="#40BD41" transform="translate(200,303)"/>
<path d="M0 0 C0.66 0 1.32 0 2 0 C3.33203125 1.94140625 3.33203125 1.94140625 4.8125 4.5625 C8.82461671 12.32734361 8.82461671 12.32734361 15 18 C15.33 18.99 15.66 19.98 16 21 C17.6222454 22.70993434 19.29413425 24.37347684 21 26 C22.33333333 27.33333333 23.66666667 28.66666667 25 30 C24.67 30.66 24.34 31.32 24 32 C17.62819825 26.26255904 12.42722631 20.176745 7.5 13.1875 C6.7260791 12.09417358 6.7260791 12.09417358 5.93652344 10.97875977 C3.48546183 7.43303742 1.36319175 4.13014643 0 0 Z " fill="#46B147" transform="translate(145,170)"/>
<path d="M0 0 C0.33 0.66 0.66 1.32 1 2 C1.66 2 2.32 2 3 2 C1.53162104 5.19975116 -0.27839346 7.84834256 -2.4375 10.625 C-3.33275391 11.78902344 -3.33275391 11.78902344 -4.24609375 12.9765625 C-6 15 -6 15 -9 17 C-9.86172797 14.58716168 -10.08724082 13.30534286 -9.375 10.8125 C-8 9 -8 9 -5.375 8.25 C-4.59125 8.1675 -3.8075 8.085 -3 8 C-2.690625 6.865625 -2.38125 5.73125 -2.0625 4.5625 C-1 1 -1 1 0 0 Z " fill="#3CC13D" transform="translate(340,178)"/>
<path d="M0 0 C-0.804375 0.28875 -1.60875 0.5775 -2.4375 0.875 C-5.1326468 1.73262568 -5.1326468 1.73262568 -6 4 C-7.32 4 -8.64 4 -10 4 C-10 4.66 -10 5.32 -10 6 C-11.155 5.938125 -12.31 5.87625 -13.5 5.8125 C-17.53999221 5.78384757 -20.50328741 6.75049518 -24.140625 8.44140625 C-26.44028938 9.13227181 -27.72673696 8.64550535 -30 8 C-26.08415567 6.68503767 -22.16718663 5.37345777 -18.25 4.0625 C-16.58324219 3.50272461 -16.58324219 3.50272461 -14.8828125 2.93164062 C-13.81289063 2.57392578 -12.74296875 2.21621094 -11.640625 1.84765625 C-10.16384277 1.3527771 -10.16384277 1.3527771 -8.65722656 0.84790039 C-2.33740886 -1.16870443 -2.33740886 -1.16870443 0 0 Z " fill="#3EBF3D" transform="translate(311,328)"/>
<path d="M0 0 C-2.36595933 2.61500768 -4.86049226 4.38999603 -8 6 C-8.66 5.67 -9.32 5.34 -10 5 C-14.66615362 4.7358781 -17.72563671 5.26715002 -22 7 C-24.14453125 6.55859375 -24.14453125 6.55859375 -26 6 C-23.62683882 5.18177267 -21.2517058 4.37031293 -18.875 3.5625 C-18.20984375 3.33240234 -17.5446875 3.10230469 -16.859375 2.86523438 C-11.24931918 0.96771549 -5.96363186 -0.17540094 0 0 Z " fill="#44BC43" transform="translate(231,1)"/>
<path d="M0 0 C0.69895386 0.00141495 1.39790771 0.0028299 2.11804199 0.00428772 C4.31832429 0.00981955 6.51849923 0.02235848 8.71875 0.03515625 C10.22395685 0.04018009 11.72916532 0.04474143 13.234375 0.04882812 C16.89586735 0.05976648 20.55729817 0.07698266 24.21875 0.09765625 C24.21875 0.42765625 24.21875 0.75765625 24.21875 1.09765625 C23.30061523 1.1227124 22.38248047 1.14776855 21.43652344 1.17358398 C18.02217975 1.26885895 14.60799797 1.36808403 11.19384766 1.4699707 C9.7176561 1.5132166 8.24141785 1.55489881 6.76513672 1.5949707 C4.64015652 1.65292471 2.51540907 1.71654571 0.390625 1.78125 C-0.8871582 1.81790771 -2.16494141 1.85456543 -3.48144531 1.89233398 C-7.21693412 2.11666029 -7.21693412 2.11666029 -10.78125 3.09765625 C-11.11125 3.75765625 -11.44125 4.41765625 -11.78125 5.09765625 C-13.10125 4.76765625 -14.42125 4.43765625 -15.78125 4.09765625 C-15.78125 3.10765625 -15.78125 2.11765625 -15.78125 1.09765625 C-10.46917752 0.35096902 -5.3770361 -0.0216816 0 0 Z " fill="#45B245" transform="translate(110.78125,319.90234375)"/>
<path d="M0 0 C6.87870679 -0.16260047 13.38608062 0.44205741 20.1875 1.4375 C21.14591797 1.57220703 22.10433594 1.70691406 23.09179688 1.84570312 C27.73861734 2.50402945 32.37519092 3.1994028 37 4 C37 4.33 37 4.66 37 5 C34.6739143 5.38063221 32.33944736 5.71269945 30 6 C29.67 5.67 29.34 5.34 29 5 C19.4401233 3.13197812 9.66811379 2.16662734 0 1 C0 0.67 0 0.34 0 0 Z " fill="#43B845" transform="translate(138,321)"/>
<path d="M0 0 C0 0.33 0 0.66 0 1 C-3.85917058 1.69536331 -7.71863566 2.38906662 -11.57836914 3.08129883 C-13.52961392 3.43159612 -15.48062938 3.78316996 -17.43164062 4.13476562 C-18.67236328 4.35712891 -19.91308594 4.57949219 -21.19140625 4.80859375 C-22.32779541 5.01282959 -23.46418457 5.21706543 -24.63500977 5.42749023 C-28.08279057 6.01408575 -31.53583891 6.52052467 -35 7 C-34 5 -34 5 -31.078125 4 C-8.80440053 -1.81844231 -8.80440053 -1.81844231 0 0 Z " fill="#45B947" transform="translate(339,294)"/>
<path d="M0 0 C0.66 0.99 1.32 1.98 2 3 C1.34 3 0.68 3 0 3 C-0.66 5.64 -1.32 8.28 -2 11 C-2.66 11 -3.32 11 -4 11 C-4.66 14.96 -5.32 18.92 -6 23 C-6.99 23.33 -7.98 23.66 -9 24 C-7.42451944 15.26324419 -3.96993783 7.88473764 0 0 Z " fill="#40BC41" transform="translate(145,60)"/>
<path d="M0 0 C0.33 0.66 0.66 1.32 1 2 C-0.47169811 5.73584906 -0.47169811 5.73584906 -3 7 C-3.72159424 8.64363134 -4.39351421 10.31050386 -5 12 C-5.66 12 -6.32 12 -7 12 C-7.12375 12.598125 -7.2475 13.19625 -7.375 13.8125 C-8 16 -8 16 -10 19 C-10.66 19 -11.32 19 -12 19 C-10.64891284 14.0755457 -8.55772192 10.70923067 -5.4375 6.6875 C-5.02564453 6.15060547 -4.61378906 5.61371094 -4.18945312 5.06054688 C-1.26506696 1.26506696 -1.26506696 1.26506696 0 0 Z " fill="#42BA43" transform="translate(158,41)"/>
<path d="M0 0 C1.89693861 0.28438952 3.79252027 0.57783792 5.6875 0.875 C6.74324219 1.03742188 7.79898438 1.19984375 8.88671875 1.3671875 C11.79794914 1.95893069 14.28955607 2.8031806 17 4 C17 5.65 17 7.3 17 9 C14.525 8.01 14.525 8.01 12 7 C12 6.34 12 5.68 12 5 C11.34 5 10.68 5 10 5 C10 4.34 10 3.68 10 3 C8.906875 3.061875 7.81375 3.12375 6.6875 3.1875 C3 3 3 3 1.26953125 1.48828125 C0.64111328 0.75158203 0.64111328 0.75158203 0 0 Z " fill="#3AC33C" transform="translate(176,326)"/>
<path d="M0 0 C-5.62346853 2.14714253 -11.26910207 4.15829313 -17 6 C-17.66644531 6.22042969 -18.33289063 6.44085938 -19.01953125 6.66796875 C-22.27132063 7.68800373 -23.68078832 8.10640389 -27 7 C-23.91794058 5.85071956 -20.83414029 4.70618337 -17.75 3.5625 C-16.87730469 3.23701172 -16.00460938 2.91152344 -15.10546875 2.57617188 C-14.26113281 2.26357422 -13.41679687 1.95097656 -12.546875 1.62890625 C-11.38430176 1.1968689 -11.38430176 1.1968689 -10.19824219 0.75610352 C-6.35225762 -0.56675457 -3.94764975 -1.26888742 0 0 Z " fill="#47B948" transform="translate(198,266)"/>
<path d="M0 0 C0.99 0.33 1.98 0.66 3 1 C1.27860959 2.63396428 -0.45128792 4.25691274 -2.1875 5.875 C-2.91163086 6.56529297 -2.91163086 6.56529297 -3.65039062 7.26953125 C-6.59421881 9.99602984 -9.16905516 11.78138135 -13 13 C-12.67 12.01 -12.34 11.02 -12 10 C-11.34 9.67 -10.68 9.34 -10 9 C-8.86649466 6.98330173 -8.86649466 6.98330173 -8 5 C-6.68 5 -5.36 5 -4 5 C-4 4.34 -4 3.68 -4 3 C-3.01 2.67 -2.02 2.34 -1 2 C-0.67 1.34 -0.34 0.68 0 0 Z " fill="#3DBF40" transform="translate(325,198)"/>
<path d="M0 0 C2.17260367 3.2589055 3.35021087 6.32149695 4.6875 10 C5.14511719 11.2375 5.60273438 12.475 6.07421875 13.75 C7 17 7 17 6 20 C3.59185923 16.48812804 2.63370592 14.27343092 3 10 C2.34 9.67 1.68 9.34 1 9 C-0.72946672 6.45131221 -1.0473774 5.34743429 -0.625 2.25 C-0.41875 1.5075 -0.2125 0.765 0 0 Z " fill="#3BBE3D" transform="translate(450,411)"/>
<path d="M0 0 C1.1875 2.0625 1.1875 2.0625 2 4 C-1.48444977 5.16148326 -3.44120982 4.61892003 -7 4 C-7.33 4.33 -7.66 4.66 -8 5 C-9.66617115 5.04063832 -11.33388095 5.042721 -13 5 C-4.82022472 -1.60674157 -4.82022472 -1.60674157 0 0 Z " fill="#3CC33B" transform="translate(205,9)"/>
<path d="M0 0 C-14.25443787 7.51597633 -14.25443787 7.51597633 -19.265625 6.57421875 C-19.83796875 6.38472656 -20.4103125 6.19523438 -21 6 C-16.77050005 3.58314288 -13.87664009 2.65166856 -9 3 C-9.33 2.01 -9.66 1.02 -10 0 C-2.25 -1.125 -2.25 -1.125 0 0 Z " fill="#44BB44" transform="translate(298,220)"/>
<path d="M0 0 C1.32 0 2.64 0 4 0 C4 0.66 4 1.32 4 2 C4.86625 2.185625 4.86625 2.185625 5.75 2.375 C8 3 8 3 9.8125 4.0625 C12.89828337 5.38497859 15.68477932 5.12750849 19 5 C18.34 6.32 17.68 7.64 17 9 C10.83643195 7.3341708 5.51740344 4.12194714 0 1 C0 0.67 0 0.34 0 0 Z M20 3 C20.66 3 21.32 3 22 3 C22 3.66 22 4.32 22 5 C21.01 4.67 20.02 4.34 19 4 C19.33 3.67 19.66 3.34 20 3 Z " fill="#46B444" transform="translate(185,213)"/>
<path d="M0 0 C0.33 0 0.66 0 1 0 C1.33 2.97 1.66 5.94 2 9 C2.99 9 3.98 9 5 9 C4.34 10.65 3.68 12.3 3 14 C2.34 13.34 1.68 12.68 1 12 C0.67 13.65 0.34 15.3 0 17 C-0.33 17 -0.66 17 -1 17 C-1.02721176 15.10424749 -1.04649136 13.20838021 -1.0625 11.3125 C-1.07410156 10.25675781 -1.08570312 9.20101563 -1.09765625 8.11328125 C-1.00865425 5.27589738 -0.64939838 2.7561081 0 0 Z " fill="#3BC13A" transform="translate(26,481)"/>
<path d="M0 0 C-0.33 1.65 -0.66 3.3 -1 5 C-1.639375 5.12375 -2.27875 5.2475 -2.9375 5.375 C-3.9584375 5.684375 -3.9584375 5.684375 -5 6 C-5.33 6.66 -5.66 7.32 -6 8 C-7.65 7.67 -9.3 7.34 -11 7 C-4.48275862 0 -4.48275862 0 0 0 Z " fill="#3EBE3F" transform="translate(192,14)"/>
<path d="M0 0 C-3 2 -3 2 -6 2 C-6 2.66 -6 3.32 -6 4 C-6.763125 4.268125 -7.52625 4.53625 -8.3125 4.8125 C-11.01886134 5.78608483 -11.01886134 5.78608483 -12.5 7.6875 C-12.995 8.120625 -13.49 8.55375 -14 9 C-16.6875 8.6875 -16.6875 8.6875 -19 8 C-15.83606011 5.46884809 -12.54351484 3.59098899 -8.9375 1.75 C-7.89464844 1.20859375 -6.85179687 0.6671875 -5.77734375 0.109375 C-3 -1 -3 -1 0 0 Z " fill="#42BB43" transform="translate(171,275)"/>
<path d="M0 0 C1.46067199 0.45082469 2.91848032 0.91093537 4.375 1.375 C5.18710937 1.63023438 5.99921875 1.88546875 6.8359375 2.1484375 C9 3 9 3 11 5 C9.63875 4.938125 9.63875 4.938125 8.25 4.875 C5.1217954 4.99531556 3.61385994 5.3914708 1 7 C0.67 4.69 0.34 2.38 0 0 Z " fill="#3DBF40" transform="translate(288,7)"/>
<path d="M0 0 C5.92863717 1.16651426 11.38798394 2.75519358 17 5 C13.31748062 6.22750646 11.65397023 5.60943561 7.9375 4.625 C6.87402344 4.34914063 5.81054688 4.07328125 4.71484375 3.7890625 C2 3 2 3 0 2 C0 1.34 0 0.68 0 0 Z " fill="#42BC44" transform="translate(304,267)"/>
<path d="M0 0 C1.13643966 3.40931897 0.86747764 4.00335456 -0.4375 7.1875 C-0.72496094 7.90292969 -1.01242188 8.61835938 -1.30859375 9.35546875 C-1.53675781 9.89816406 -1.76492187 10.44085938 -2 11 C-2.66 11 -3.32 11 -4 11 C-4 11.99 -4 12.98 -4 14 C-4.66 14 -5.32 14 -6 14 C-4.50829734 9.0276578 -2.39542583 4.58154261 0 0 Z " fill="#44B545" transform="translate(59,378)"/>
<path d="M0 0 C11.52164009 0.77904328 11.52164009 0.77904328 17 3 C17 3.33 17 3.66 17 4 C14.91589342 3.91266027 12.83265331 3.80447722 10.75 3.6875 C9.00976562 3.60048828 9.00976562 3.60048828 7.234375 3.51171875 C3.89180362 2.98288197 2.4502943 2.26227667 0 0 Z " fill="#44B944" transform="translate(264,1)"/>
<path d="M0 0 C2.97 0.99 5.94 1.98 9 3 C7.35 4.32 5.7 5.64 4 7 C2.02 3.535 2.02 3.535 0 0 Z " fill="#3DC141" transform="translate(321,273)"/>
<path d="M0 0 C1.90318884 2.85478326 2.4619099 4.41941308 3.125 7.6875 C3.29257812 8.49574219 3.46015625 9.30398438 3.6328125 10.13671875 C3.75398438 10.75160156 3.87515625 11.36648438 4 12 C3.34 12 2.68 12 2 12 C2 10.68 2 9.36 2 8 C1.34 8 0.68 8 0 8 C0 5.36 0 2.72 0 0 Z " fill="#3BBD41" transform="translate(457,432)"/>
<path d="M0 0 C2.97 0 5.94 0 9 0 C7.02 0.99 7.02 0.99 5 2 C4.67 2.66 4.34 3.32 4 4 C2.68 3.67 1.36 3.34 0 3 C0 2.01 0 1.02 0 0 Z " fill="#40C740" transform="translate(95,321)"/>
<path d="M0 0 C4.75207471 -0.43200679 7.78210698 1.01510917 12 3 C10.265625 4.1171875 10.265625 4.1171875 8 5 C5.859375 4.3203125 5.859375 4.3203125 3.75 3.125 C3.04359375 2.73570312 2.3371875 2.34640625 1.609375 1.9453125 C1.07828125 1.63335937 0.5471875 1.32140625 0 1 C0 0.67 0 0.34 0 0 Z " fill="#44B147" transform="translate(238,317)"/>
<path d="M0 0 C2.64465038 3.1254959 3.84414715 6.08788267 5 10 C3.68 9.67 2.36 9.34 1 9 C0.67 6.03 0.34 3.06 0 0 Z " fill="#3EB640" transform="translate(442,393)"/>
<path d="M0 0 C2 2 2 2 2.125 5.625 C2.08375 6.73875 2.0425 7.8525 2 9 C1.67 8.01 1.34 7.02 1 6 C0.01 6 -0.98 6 -2 6 C-1.34 4.02 -0.68 2.04 0 0 Z " fill="#42BA44" transform="translate(64,369)"/>
<path d="M0 0 C0.99 0 1.98 0 3 0 C2.47535095 4.61691161 1.92509086 6.09987886 -1 10 C-0.67 6.7 -0.34 3.4 0 0 Z " fill="#40BD3F" transform="translate(353,154)"/>
<path d="M0 0 C0.99 0.33 1.98 0.66 3 1 C3 1.66 3 2.32 3 3 C1.02 3.99 -0.96 4.98 -3 6 C-2.67 4.68 -2.34 3.36 -2 2 C-1.34 2 -0.68 2 0 2 C0 1.34 0 0.68 0 0 Z " fill="#3AC53A" transform="translate(44,415)"/>
<path d="M0 0 C0 0.99 0 1.98 0 3 C0.99 3.33 1.98 3.66 3 4 C0.36 4 -2.28 4 -5 4 C-5 3.34 -5 2.68 -5 2 C-2 0 -2 0 0 0 Z " fill="#52AF51" transform="translate(142,289)"/>
<path d="M0 0 C0.66 0 1.32 0 2 0 C2 0.66 2 1.32 2 2 C1.01 1.67 0.02 1.34 -1 1 C-0.67 0.67 -0.34 0.34 0 0 Z M-1 3 C-1.99 4.485 -1.99 4.485 -3 6 C-4.32 5.67 -5.64 5.34 -7 5 C-7 4.34 -7 3.68 -7 3 C-3.25 1.875 -3.25 1.875 -1 3 Z " fill="#3BC13F" transform="translate(205,216)"/>
<path d="M0 0 C1.32 0.33 2.64 0.66 4 1 C1.03 3.475 1.03 3.475 -2 6 C-2.66 5.67 -3.32 5.34 -4 5 C-2.68 3.35 -1.36 1.7 0 0 Z " fill="#42B544" transform="translate(316,205)"/>
<path d="M0 0 C1.32 1.65 2.64 3.3 4 5 C3.67 5.66 3.34 6.32 3 7 C2.67 6.67 2.34 6.34 2 6 C1.34 6.99 0.68 7.98 0 9 C0 6.03 0 3.06 0 0 Z " fill="#4BB24A" transform="translate(428,367)"/>
<path d="M0 0 C0.99 0.33 1.98 0.66 3 1 C3.33 1.99 3.66 2.98 4 4 C2.35 4.33 0.7 4.66 -1 5 C-1 2 -1 2 0 0 Z " fill="#2CD12C" transform="translate(230,0)"/>
<path d="" fill="#FFFFFF" transform="translate(0,0)"/>
<path d="" fill="#FFFFFF" transform="translate(0,0)"/>
<path d="" fill="#FFFFFF" transform="translate(0,0)"/>
<path d="" fill="#FFFFFF" transform="translate(0,0)"/>
<path d="" fill="#FFFFFF" transform="translate(0,0)"/>
<path d="" fill="#FFFFFF" transform="translate(0,0)"/>
<path d="" fill="#FFFFFF" transform="translate(0,0)"/>
<path d="" fill="#FFFFFF" transform="translate(0,0)"/>
<path d="" fill="#FFFFFF" transform="translate(0,0)"/>
<path d="" fill="#FFFFFF" transform="translate(0,0)"/>
<path d="" fill="#FFFFFF" transform="translate(0,0)"/>
<path d="" fill="#FFFFFF" transform="translate(0,0)"/>
<path d="" fill="#FFFFFF" transform="translate(0,0)"/>
<path d="" fill="#FFFFFF" transform="translate(0,0)"/>
<path d="" fill="#FFFFFF" transform="translate(0,0)"/>
<path d="" fill="#FFFFFF" transform="translate(0,0)"/>
<path d="" fill="#FFFFFF" transform="translate(0,0)"/>
<path d="" fill="#FFFFFF" transform="translate(0,0)"/>
<path d="" fill="#FFFFFF" transform="translate(0,0)"/>
<path d="" fill="#FFFFFF" transform="translate(0,0)"/>
<path d="" fill="#FFFFFF" transform="translate(0,0)"/>
<path d="" fill="#FFFFFF" transform="translate(0,0)"/>
<path d="" fill="#FFFFFF" transform="translate(0,0)"/>
<path d="" fill="#FFFFFF" transform="translate(0,0)"/>
<path d="" fill="#FFFFFF" transform="translate(0,0)"/>
<path d="" fill="#FFFFFF" transform="translate(0,0)"/>
<path d="" fill="#FFFFFF" transform="translate(0,0)"/>
<path d="" fill="#FFFFFF" transform="translate(0,0)"/>
<path d="" fill="#FFFFFF" transform="translate(0,0)"/>
<path d="" fill="#FFFFFF" transform="translate(0,0)"/>
<path d="" fill="#FFFFFF" transform="translate(0,0)"/>
<path d="" fill="#FFFFFF" transform="translate(0,0)"/>
<path d="" fill="#FFFFFF" transform="translate(0,0)"/>
<path d="" fill="#FFFFFF" transform="translate(0,0)"/>
<path d="" fill="#FFFFFF" transform="translate(0,0)"/>
<path d="" fill="#FFFFFF" transform="translate(0,0)"/>
<path d="" fill="#FFFFFF" transform="translate(0,0)"/>
<path d="" fill="#FFFFFF" transform="translate(0,0)"/>
<path d="" fill="#FFFFFF" transform="translate(0,0)"/>
<path d="" fill="#FFFFFF" transform="translate(0,0)"/>
<path d="" fill="#FFFFFF" transform="translate(0,0)"/>
<path d="" fill="#FFFFFF" transform="translate(0,0)"/>
<path d="" fill="#FFFFFF" transform="translate(0,0)"/>
<path d="" fill="#FFFFFF" transform="translate(0,0)"/>
<path d="" fill="#FFFFFF" transform="translate(0,0)"/>
<path d="" fill="#FFFFFF" transform="translate(0,0)"/>
<path d="" fill="#FFFFFF" transform="translate(0,0)"/>
<path d="" fill="#FFFFFF" transform="translate(0,0)"/>
</svg>
